RobotoSerifTextWide-Regular05h.ufo
<glyph name="dollar" format="2">
  <advance width="664"/>
  <unicode hex="0024"/>
  <outline>
    <contour>
      <point x="304" y="790" type="line"/>
      <point x="304" y="674" type="line"/>
      <point x="304" y="658" type="line"/>
      <point x="304" y="48" type="line"/>
      <point x="304" y="37" type="line"/>
      <point x="304" y="-120" type="line"/>
      <point x="370" y="-120" type="line"/>
      <point x="370" y="39" type="line"/>
      <point x="370" y="52" type="line"/>
      <point x="370" y="660" type="line"/>
      <point x="370" y="672" type="line"/>
      <point x="370" y="790" type="line"/>
    </contour>
    <contour>
      <point x="340" y="71" type="curve" smooth="yes"/>
      <point x="242" y="71"/>
      <point x="153" y="102"/>
      <point x="110" y="155" type="curve"/>
      <point x="100" y="143"/>
      <point x="126" y="99"/>
      <point x="159" y="98" type="curve"/>
      <point x="159" y="218" type="line"/>
      <point x="56" y="218" type="line"/>
      <point x="56" y="91" type="line"/>
      <point x="109" y="53"/>
      <point x="213" y="12"/>
      <point x="344" y="12" type="curve" smooth="yes"/>
      <point x="495" y="12"/>
      <point x="611" y="78"/>
      <point x="611" y="210" type="curve" smooth="yes"/>
      <point x="611.0" y="332.6224489795918"/>
      <point x="489.48222722960907" y="377.8881232827307"/>
      <point x="364" y="407" type="curve" smooth="yes"/>
      <point x="255.52826198235806" y="431.878838994872"/>
      <point x="169.0" y="447.0"/>
      <point x="169" y="531" type="curve" smooth="yes"/>
      <point x="169" y="602"/>
      <point x="230" y="640"/>
      <point x="356" y="640" type="curve" smooth="yes"/>
      <point x="441" y="640"/>
      <point x="503" y="612"/>
      <point x="536" y="575" type="curve"/>
      <point x="543" y="597"/>
      <point x="517" y="621"/>
      <point x="488" y="623" type="curve"/>
      <point x="488" y="522" type="line"/>
      <point x="586" y="522" type="line"/>
      <point x="586" y="635" type="line"/>
      <point x="547" y="665"/>
      <point x="462" y="698"/>
      <point x="350" y="698" type="curve" smooth="yes"/>
      <point x="187" y="698"/>
      <point x="86" y="634"/>
      <point x="86" y="520" type="curve" smooth="yes"/>
      <point x="86.0" y="389.0"/>
      <point x="197.4807026036937" y="358.88396833703945"/>
      <point x="313" y="331" type="curve" smooth="yes"/>
      <point x="427.51449113105895" y="302.87363375728376"/>
      <point x="523.0" y="286.0"/>
      <point x="523" y="191" type="curve" smooth="yes"/>
      <point x="523" y="102"/>
      <point x="453" y="71"/>
    </contour>
  </outline>
</glyph>
<glyph name="percent" format="2">
  <advance width="915"/>
  <unicode hex="0025"/>
  <outline>
    <contour>
      <point x="220" y="720" type="curve" smooth="yes"/>
      <point x="112" y="720"/>
      <point x="35" y="648"/>
      <point x="35" y="551" type="curve" smooth="yes"/>
      <point x="35" y="453"/>
      <point x="112" y="382"/>
      <point x="220" y="382" type="curve" smooth="yes"/>
      <point x="328" y="382"/>
      <point x="406" y="454"/>
      <point x="406" y="551" type="curve" smooth="yes"/>
      <point x="406" y="649"/>
      <point x="328" y="720"/>
    </contour>
    <contour>
      <point x="220" y="430" type="curve" smooth="yes"/>
      <point x="157" y="430"/>
      <point x="119" y="478"/>
      <point x="119" y="551" type="curve" smooth="yes"/>
      <point x="119" y="623"/>
      <point x="157" y="672"/>
      <point x="220" y="672" type="curve" smooth="yes"/>
      <point x="283" y="672"/>
      <point x="322" y="623"/>
      <point x="322" y="551" type="curve" smooth="yes"/>
      <point x="322" y="478"/>
      <point x="283" y="430"/>
    </contour>
    <contour>
      <point x="695" y="328" type="curve" smooth="yes"/>
      <point x="587" y="328"/>
      <point x="510" y="256"/>
      <point x="510" y="159" type="curve" smooth="yes"/>
      <point x="510" y="61"/>
      <point x="587" y="-10"/>
      <point x="695" y="-10" type="curve" smooth="yes"/>
      <point x="803" y="-10"/>
      <point x="880" y="62"/>
      <point x="880" y="159" type="curve" smooth="yes"/>
      <point x="880" y="257"/>
      <point x="803" y="328"/>
    </contour>
    <contour>
      <point x="695" y="38" type="curve" smooth="yes"/>
      <point x="632" y="38"/>
      <point x="594" y="87"/>
      <point x="594" y="159" type="curve" smooth="yes"/>
      <point x="594" y="232"/>
      <point x="632" y="280"/>
      <point x="695" y="280" type="curve" smooth="yes"/>
      <point x="758" y="280"/>
      <point x="796" y="232"/>
      <point x="796" y="159" type="curve" smooth="yes"/>
      <point x="796" y="87"/>
      <point x="758" y="38"/>
    </contour>
    <component base="fraction" xOffset="187"/>
  </outline>
</glyph>
<glyph name="plus" format="2">
  <advance width="664"/>
  <unicode hex="002B"/>
  <outline>
    <contour>
      <point x="291" y="554" type="line"/>
      <point x="291" y="128" type="line"/>
      <point x="371" y="128" type="line"/>
      <point x="371" y="554" type="line"/>
    </contour>
    <contour>
      <point x="551" y="376" type="line"/>
      <point x="113" y="376" type="line"/>
      <point x="113" y="306" type="line"/>
      <point x="551" y="306" type="line"/>
    </contour>
  </outline>
</glyph>
<glyph name="asciicircum" format="2">
  <advance width="664"/>
  <unicode hex="005E"/>
  <outline>
    <contour>
      <point x="174" y="363" type="line"/>
      <point x="343" y="685" type="line"/>
      <point x="342" y="710" type="line"/>
      <point x="286" y="710" type="line"/>
      <point x="99" y="363" type="line"/>
    </contour>
    <contour>
      <point x="490" y="363" type="line"/>
      <point x="565" y="363" type="line"/>
      <point x="377" y="710" type="line"/>
      <point x="319" y="710" type="line"/>
      <point x="321" y="686" type="line"/>
    </contour>
  </outline>
</glyph>
<glyph name="sterling" format="2">
  <advance width="664"/>
  <unicode hex="00A3"/>
  <outline>
    <contour>
      <point x="50" y="367" type="line"/>
      <point x="50" y="310" type="line"/>
      <point x="493" y="310" type="line"/>
      <point x="493" y="367" type="line"/>
    </contour>
    <contour>
      <point x="40" y="-13" type="line"/>
      <point x="204" y="26"/>
      <point x="296.0" y="113"/>
      <point x="296" y="227" type="curve" smooth="yes"/>
      <point x="296.0" y="327"/>
      <point x="211.0" y="428"/>
      <point x="211" y="527" type="curve" smooth="yes"/>
      <point x="211" y="616"/>
      <point x="278.0" y="658.0"/>
      <point x="372" y="658" type="curve" smooth="yes"/>
      <point x="450.0" y="658.0"/>
      <point x="496" y="632"/>
      <point x="529" y="604" type="curve"/>
      <point x="528" y="624"/>
      <point x="515" y="648"/>
      <point x="487" y="650" type="curve"/>
      <point x="487" y="543" type="line"/>
      <point x="583" y="543" type="line"/>
      <point x="583" y="665" type="line"/>
      <point x="551" y="688"/>
      <point x="482" y="720.0"/>
      <point x="373" y="720" type="curve" smooth="yes"/>
      <point x="218" y="720.0"/>
      <point x="111" y="648"/>
      <point x="111" y="528" type="curve" smooth="yes"/>
      <point x="111.0" y="418"/>
      <point x="208" y="331"/>
      <point x="208" y="223" type="curve" smooth="yes"/>
      <point x="208" y="152"/>
      <point x="160" y="92"/>
      <point x="40" y="60" type="curve"/>
    </contour>
    <contour>
      <point x="457" y="-10" type="curve" smooth="yes"/>
      <point x="560" y="-10.0"/>
      <point x="606" y="69"/>
      <point x="633" y="176" type="curve"/>
      <point x="575" y="195" type="line"/>
      <point x="548" y="119"/>
      <point x="522" y="84.0"/>
      <point x="459" y="84" type="curve" smooth="yes"/>
      <point x="395" y="84.0"/>
      <point x="320" y="113"/>
      <point x="237" y="175" type="curve"/>
      <point x="221" y="166"/>
      <point x="206" y="140"/>
      <point x="200" y="122" type="curve"/>
      <point x="309" y="35"/>
      <point x="369" y="-10.0"/>
    </contour>
  </outline>
</glyph>
<glyph name="yen" format="2">
  <advance width="664"/>
  <unicode hex="00A5"/>
  <outline>
    <contour>
      <point x="82" y="355" type="line"/>
      <point x="82" y="301" type="line"/>
      <point x="585" y="301" type="line"/>
      <point x="585" y="355" type="line"/>
    </contour>
    <contour>
      <point x="82" y="225" type="line"/>
      <point x="82" y="171" type="line"/>
      <point x="585" y="171" type="line"/>
      <point x="585" y="225" type="line"/>
    </contour>
    <contour>
      <point x="20" y="710" type="line"/>
      <point x="20" y="661" type="line"/>
      <point x="26" y="661" type="line" smooth="yes"/>
      <point x="57.55555555555556" y="661"/>
      <point x="80.72402452038877" y="659.1439825834991"/>
      <point x="97" y="635" type="curve" smooth="yes"/>
      <point x="308" y="322" type="line"/>
      <point x="360" y="322" type="line"/>
      <point x="557" y="620" type="line" smooth="yes"/>
      <point x="580.0850444169184" y="654.9205240418361"/>
      <point x="605.9560439560439" y="661"/>
      <point x="638" y="661" type="curve" smooth="yes"/>
      <point x="644" y="661" type="line"/>
      <point x="644" y="710" type="line"/>
      <point x="417" y="710" type="line"/>
      <point x="417" y="661" type="line"/>
      <point x="435" y="661" type="line" smooth="yes"/>
      <point x="466.45569620253167" y="661"/>
      <point x="506.0" y="654.0"/>
      <point x="506" y="643" type="curve"/>
      <point x="331" y="371" type="line"/>
      <point x="367" y="376" type="line"/>
      <point x="186" y="651" type="line"/>
      <point x="186.0" y="658.0"/>
      <point x="225.56521739130434" y="661"/>
      <point x="256" y="661" type="curve" smooth="yes"/>
      <point x="276" y="661" type="line"/>
      <point x="276" y="710" type="line"/>
    </contour>
    <contour>
      <point x="180" y="0" type="line"/>
      <point x="487" y="0" type="line"/>
      <point x="487" y="49" type="line"/>
      <point x="467" y="49" type="line" smooth="yes"/>
      <point x="419.4848484848485" y="49"/>
      <point x="383" y="56.0"/>
      <point x="383" y="85" type="curve" smooth="yes"/>
      <point x="383" y="364" type="line"/>
      <point x="284" y="364" type="line"/>
      <point x="284" y="85" type="line" smooth="yes"/>
      <point x="284" y="56.0"/>
      <point x="248.36363636363637" y="49"/>
      <point x="200" y="49" type="curve" smooth="yes"/>
      <point x="180" y="49" type="line"/>
    </contour>
  </outline>
</glyph>
<glyph name="dieresis" format="2">
  <advance width="588"/>
  <unicode hex="00A8"/>
  <anchor x="294" y="526" name="_top"/>
  <outline>
    <contour>
      <point x="169" y="603" type="curve" smooth="yes"/>
      <point x="208" y="603"/>
      <point x="237" y="626"/>
      <point x="237" y="665" type="curve" smooth="yes"/>
      <point x="237" y="704"/>
      <point x="208" y="727"/>
      <point x="169" y="727" type="curve" smooth="yes"/>
      <point x="130" y="727"/>
      <point x="102" y="704"/>
      <point x="102" y="665" type="curve" smooth="yes"/>
      <point x="102" y="626"/>
      <point x="130" y="603"/>
    </contour>
    <contour>
      <point x="419" y="603" type="curve" smooth="yes"/>
      <point x="458" y="603"/>
      <point x="486" y="626"/>
      <point x="486" y="665" type="curve" smooth="yes"/>
      <point x="486" y="704"/>
      <point x="458" y="727"/>
      <point x="419" y="727" type="curve" smooth="yes"/>
      <point x="380" y="727"/>
      <point x="351" y="704"/>
      <point x="351" y="665" type="curve" smooth="yes"/>
      <point x="351" y="626"/>
      <point x="380" y="603"/>
    </contour>
  </outline>
</glyph>
<glyph name="logicalnot" format="2">
  <advance width="664"/>
  <unicode hex="00AC"/>
  <outline>
    <contour>
      <point x="481" y="350" type="line"/>
      <point x="481" y="155" type="line"/>
      <point x="549" y="155" type="line"/>
      <point x="549" y="373" type="line"/>
      <point x="115" y="373" type="line"/>
      <point x="115" y="309" type="line"/>
      <point x="527" y="309" type="line"/>
    </contour>
  </outline>
</glyph>
<glyph name="divide" format="2">
  <advance width="664"/>
  <unicode hex="00F7"/>
  <guideline x="332" y="411" angle="90" identifier="8Dl00zSRBE"/>
  <outline>
    <contour>
      <point x="399.0" y="510" type="curve" smooth="yes"/>
      <point x="399.0" y="546"/>
      <point x="370.0" y="571"/>
      <point x="332.0" y="571" type="curve" smooth="yes"/>
      <point x="294.0" y="571"/>
      <point x="265.0" y="546"/>
      <point x="265.0" y="510" type="curve" smooth="yes"/>
      <point x="265.0" y="474"/>
      <point x="294.0" y="448"/>
      <point x="332.0" y="448" type="curve" smooth="yes"/>
      <point x="370.0" y="448"/>
      <point x="399.0" y="474"/>
    </contour>
    <contour>
      <point x="399.0" y="173" type="curve" smooth="yes"/>
      <point x="399.0" y="209"/>
      <point x="370.0" y="234"/>
      <point x="332.0" y="234" type="curve" smooth="yes"/>
      <point x="294.0" y="234"/>
      <point x="265.0" y="209"/>
      <point x="265.0" y="173" type="curve" smooth="yes"/>
      <point x="265.0" y="137"/>
      <point x="294.0" y="111"/>
      <point x="332.0" y="111" type="curve" smooth="yes"/>
      <point x="370.0" y="111"/>
      <point x="399.0" y="137"/>
    </contour>
    <component base="minus"/>
  </outline>
</glyph>
<glyph name="ring" format="2">
  <advance width="588"/>
  <unicode hex="02DA"/>
  <anchor x="294" y="526" name="_top"/>
  <outline>
    <contour>
      <point x="228" y="670" type="curve" smooth="yes"/>
      <point x="228" y="710"/>
      <point x="256" y="731"/>
      <point x="294" y="731" type="curve" smooth="yes"/>
      <point x="331" y="731"/>
      <point x="360" y="710"/>
      <point x="360" y="670" type="curve" smooth="yes"/>
      <point x="360" y="629"/>
      <point x="331" y="609"/>
      <point x="294" y="609" type="curve" smooth="yes"/>
      <point x="256" y="609"/>
      <point x="228" y="629"/>
    </contour>
    <contour>
      <point x="420" y="670" type="curve" smooth="yes"/>
      <point x="420" y="732"/>
      <point x="364" y="768"/>
      <point x="294" y="768" type="curve" smooth="yes"/>
      <point x="224" y="768"/>
      <point x="168" y="732"/>
      <point x="168" y="670" type="curve" smooth="yes"/>
      <point x="168" y="607"/>
      <point x="224" y="571"/>
      <point x="294" y="571" type="curve" smooth="yes"/>
      <point x="363" y="571"/>
      <point x="420" y="607"/>
    </contour>
  </outline>
</glyph>
<glyph name="perthousand" format="2">
  <advance width="1362"/>
  <unicode hex="2030"/>
  <outline>
    <contour>
      <point x="1142" y="38" type="curve" smooth="yes"/>
      <point x="1079" y="38"/>
      <point x="1041" y="87"/>
      <point x="1041" y="159" type="curve" smooth="yes"/>
      <point x="1041" y="232"/>
      <point x="1079" y="280"/>
      <point x="1142" y="280" type="curve" smooth="yes"/>
      <point x="1205" y="280"/>
      <point x="1243" y="232"/>
      <point x="1243" y="159" type="curve" smooth="yes"/>
      <point x="1243" y="87"/>
      <point x="1205" y="38"/>
    </contour>
    <contour>
      <point x="1142" y="-10" type="curve" smooth="yes"/>
      <point x="1250" y="-10"/>
      <point x="1327" y="62"/>
      <point x="1327" y="159" type="curve" smooth="yes"/>
      <point x="1327" y="257"/>
      <point x="1250" y="328"/>
      <point x="1142" y="328" type="curve" smooth="yes"/>
      <point x="1034" y="328"/>
      <point x="957" y="256"/>
      <point x="957" y="159" type="curve" smooth="yes"/>
      <point x="957" y="61"/>
      <point x="1034" y="-10"/>
    </contour>
    <contour>
      <point x="220" y="720" type="curve" smooth="yes"/>
      <point x="112" y="720"/>
      <point x="35" y="648"/>
      <point x="35" y="551" type="curve" smooth="yes"/>
      <point x="35" y="453"/>
      <point x="112" y="382"/>
      <point x="220" y="382" type="curve" smooth="yes"/>
      <point x="328" y="382"/>
      <point x="406" y="454"/>
      <point x="406" y="551" type="curve" smooth="yes"/>
      <point x="406" y="649"/>
      <point x="328" y="720"/>
    </contour>
    <contour>
      <point x="220" y="430" type="curve" smooth="yes"/>
      <point x="157" y="430"/>
      <point x="119" y="478"/>
      <point x="119" y="551" type="curve" smooth="yes"/>
      <point x="119" y="623"/>
      <point x="157" y="672"/>
      <point x="220" y="672" type="curve" smooth="yes"/>
      <point x="283" y="672"/>
      <point x="322" y="623"/>
      <point x="322" y="551" type="curve" smooth="yes"/>
      <point x="322" y="478"/>
      <point x="283" y="430"/>
    </contour>
    <contour>
      <point x="695" y="328" type="curve" smooth="yes"/>
      <point x="587" y="328"/>
      <point x="510" y="256"/>
      <point x="510" y="159" type="curve" smooth="yes"/>
      <point x="510" y="61"/>
      <point x="587" y="-10"/>
      <point x="695" y="-10" type="curve" smooth="yes"/>
      <point x="803" y="-10"/>
      <point x="880" y="62"/>
      <point x="880" y="159" type="curve" smooth="yes"/>
      <point x="880" y="257"/>
      <point x="803" y="328"/>
    </contour>
    <contour>
      <point x="695" y="38" type="curve" smooth="yes"/>
      <point x="632" y="38"/>
      <point x="594" y="87"/>
      <point x="594" y="159" type="curve" smooth="yes"/>
      <point x="594" y="232"/>
      <point x="632" y="280"/>
      <point x="695" y="280" type="curve" smooth="yes"/>
      <point x="758" y="280"/>
      <point x="796" y="232"/>
      <point x="796" y="159" type="curve" smooth="yes"/>
      <point x="796" y="87"/>
      <point x="758" y="38"/>
    </contour>
    <component base="fraction" xOffset="187"/>
  </outline>
</glyph>
<glyph name="franc" format="2">
  <advance width="664"/>
  <unicode hex="20A3"/>
  <outline>
    <contour>
      <point x="64" y="231" type="line"/>
      <point x="64" y="178" type="line"/>
      <point x="415" y="178" type="line"/>
      <point x="415" y="231" type="line"/>
    </contour>
    <contour>
      <point x="261" y="649" type="line"/>
      <point x="405" y="649" type="line" smooth="yes"/>
      <point x="529.0" y="649.0"/>
      <point x="549" y="643"/>
      <point x="555" y="596" type="curve" smooth="yes"/>
      <point x="563" y="532" type="line"/>
      <point x="623" y="532" type="line"/>
      <point x="623" y="710" type="line"/>
      <point x="64" y="710" type="line"/>
      <point x="64" y="661" type="line"/>
      <point x="77" y="661" type="line" smooth="yes"/>
      <point x="126" y="661"/>
      <point x="162" y="654"/>
      <point x="162" y="625" type="curve" smooth="yes"/>
      <point x="162" y="85" type="line" smooth="yes"/>
      <point x="162" y="56"/>
      <point x="126" y="49"/>
      <point x="77" y="49" type="curve" smooth="yes"/>
      <point x="64" y="49" type="line"/>
      <point x="64" y="0" type="line"/>
      <point x="381" y="0" type="line"/>
      <point x="381" y="49" type="line"/>
      <point x="361" y="49" type="line" smooth="yes"/>
      <point x="316" y="49"/>
      <point x="261" y="50"/>
      <point x="261" y="85" type="curve" smooth="yes"/>
    </contour>
    <contour>
      <point x="228" y="404" type="curve"/>
      <point x="228" y="349" type="line"/>
      <point x="325" y="346"/>
      <point x="423" y="343"/>
      <point x="522" y="340" type="curve"/>
      <point x="522" y="412" type="line"/>
      <point x="423" y="409"/>
      <point x="325" y="406"/>
    </contour>
  </outline>
</glyph>
<glyph name="kip" format="2">
  <advance width="664"/>
  <unicode hex="20AD"/>
  <outline>
    <contour>
      <point x="23" y="398" type="line"/>
      <point x="23" y="344" type="line"/>
      <point x="588" y="344" type="line"/>
      <point x="588" y="398" type="line"/>
    </contour>
    <contour>
      <point x="23" y="0" type="line"/>
      <point x="285" y="0" type="line" smooth="yes"/>
      <point x="285" y="49" type="line" smooth="yes"/>
      <point x="274" y="49" type="line" smooth="yes"/>
      <point x="241.6" y="49"/>
      <point x="202" y="52.0"/>
      <point x="202" y="58" type="curve" smooth="yes"/>
      <point x="202" y="651" type="line" smooth="yes"/>
      <point x="202" y="658.0"/>
      <point x="241.6" y="661"/>
      <point x="274" y="661" type="curve" smooth="yes"/>
      <point x="285" y="661" type="line" smooth="yes"/>
      <point x="285" y="710" type="line" smooth="yes"/>
      <point x="23" y="710" type="line"/>
      <point x="23" y="661" type="line"/>
      <point x="36" y="661" type="line" smooth="yes"/>
      <point x="76" y="661"/>
      <point x="106" y="654"/>
      <point x="106" y="626" type="curve" smooth="yes"/>
      <point x="106" y="84" type="line" smooth="yes"/>
      <point x="106" y="56"/>
      <point x="76" y="49"/>
      <point x="36" y="49" type="curve" smooth="yes"/>
      <point x="23" y="49" type="line"/>
    </contour>
    <contour>
      <point x="643" y="49" type="line"/>
      <point x="635" y="49" type="line" smooth="yes"/>
      <point x="604.0" y="49"/>
      <point x="581.3144989552868" y="54.07427899877395"/>
      <point x="562" y="81" type="curve" smooth="yes"/>
      <point x="326" y="410" type="line"/>
      <point x="320" y="360" type="line"/>
      <point x="541" y="632" type="line" smooth="yes"/>
      <point x="559.0941289455391" y="654.2696971637404"/>
      <point x="578.171875" y="661"/>
      <point x="602" y="661" type="curve" smooth="yes"/>
      <point x="616" y="661" type="line"/>
      <point x="616" y="710" type="line"/>
      <point x="401" y="710" type="line"/>
      <point x="401" y="661" type="line"/>
      <point x="410" y="661" type="line" smooth="yes"/>
      <point x="439.64102564102564" y="661"/>
      <point x="476.0181939779642" y="657.9363210771254"/>
      <point x="478" y="651" type="curve"/>
      <point x="249" y="367" type="line"/>
      <point x="253" y="351" type="line"/>
      <point x="463" y="58" type="line"/>
      <point x="463.0" y="52.0"/>
      <point x="427.63235294117646" y="49"/>
      <point x="398" y="49" type="curve" smooth="yes"/>
      <point x="387" y="49" type="line"/>
      <point x="387" y="0" type="line"/>
      <point x="643" y="0" type="line"/>
    </contour>
  </outline>
</glyph>
<glyph name="peso" format="2">
  <advance width="664"/>
  <unicode hex="20B1"/>
  <outline>
    <contour>
      <point x="35" y="0" type="line"/>
      <point x="317" y="0" type="line"/>
      <point x="317" y="49" type="line"/>
      <point x="291" y="49" type="line" smooth="yes"/>
      <point x="259.48148148148147" y="49"/>
      <point x="222" y="52.0"/>
      <point x="222" y="59" type="curve" smooth="yes"/>
      <point x="222" y="246" type="line"/>
      <point x="283" y="246" type="line" smooth="yes"/>
      <point x="460.80338983050854" y="246"/>
      <point x="565.0" y="342.0"/>
      <point x="565" y="482" type="curve" smooth="yes"/>
      <point x="565.0" y="621.0"/>
      <point x="466.6332179930796" y="710"/>
      <point x="289" y="710" type="curve" smooth="yes"/>
      <point x="35" y="710" type="line"/>
      <point x="35" y="661" type="line"/>
      <point x="48" y="661" type="line" smooth="yes"/>
      <point x="90.1875" y="661"/>
      <point x="123" y="654.0"/>
      <point x="123" y="625" type="curve" smooth="yes"/>
      <point x="123" y="85" type="line" smooth="yes"/>
      <point x="123" y="56.0"/>
      <point x="90.1875" y="49"/>
      <point x="48" y="49" type="curve" smooth="yes"/>
      <point x="35" y="49" type="line"/>
    </contour>
    <contour>
      <point x="288" y="651" type="line" smooth="yes"/>
      <point x="412.17857142857144" y="651"/>
      <point x="471.0" y="589.0"/>
      <point x="471" y="481" type="curve" smooth="yes"/>
      <point x="471.0" y="372.0"/>
      <point x="412.05445544554453" y="303"/>
      <point x="282" y="303" type="curve" smooth="yes"/>
      <point x="222" y="303" type="line"/>
      <point x="222" y="651" type="line"/>
    </contour>
    <contour>
      <point x="30" y="505" type="line"/>
      <point x="30" y="451" type="line"/>
      <point x="155" y="451" type="line"/>
      <point x="183" y="452" type="line"/>
      <point x="508" y="452" type="line"/>
      <point x="526" y="451" type="line"/>
      <point x="649" y="451" type="line"/>
      <point x="649" y="505" type="line"/>
      <point x="539" y="505" type="line"/>
      <point x="502" y="504" type="line"/>
      <point x="181" y="504" type="line"/>
      <point x="159" y="505" type="line"/>
    </contour>
  </outline>
</glyph>
<glyph name="cedi" format="2">
  <advance width="664"/>
  <unicode hex="20B5"/>
  <outline>
    <contour>
      <point x="383" y="701" type="curve" smooth="yes"/>
      <point x="162" y="701"/>
      <point x="30" y="569"/>
      <point x="30" y="355" type="curve" smooth="yes"/>
      <point x="30.0" y="140.0"/>
      <point x="164.77477477477478" y="9.0"/>
      <point x="360" y="9" type="curve" smooth="yes"/>
      <point x="510.61956521739125" y="9.0"/>
      <point x="601.9717588462482" y="93.89695795252737"/>
      <point x="639" y="229" type="curve"/>
      <point x="574" y="252" type="line"/>
      <point x="544.069440035495" y="138.0707717480132"/>
      <point x="484.1231527093596" y="73.0"/>
      <point x="369" y="73" type="curve" smooth="yes"/>
      <point x="223" y="73"/>
      <point x="135" y="174"/>
      <point x="135" y="355" type="curve" smooth="yes"/>
      <point x="135" y="540"/>
      <point x="219" y="642"/>
      <point x="383" y="642" type="curve" smooth="yes"/>
      <point x="476" y="642"/>
      <point x="533" y="605"/>
      <point x="561" y="570" type="curve"/>
      <point x="570" y="589"/>
      <point x="548" y="624"/>
      <point x="514" y="622" type="curve"/>
      <point x="514" y="510" type="line"/>
      <point x="617" y="510" type="line"/>
      <point x="617" y="633" type="line"/>
      <point x="588" y="656"/>
      <point x="500.0" y="701.0"/>
    </contour>
    <contour>
      <point x="324" y="790" type="line"/>
      <point x="324" y="678" type="line"/>
      <point x="324" y="669" type="line"/>
      <point x="324" y="51" type="line"/>
      <point x="324" y="37" type="line"/>
      <point x="324" y="-120" type="line"/>
      <point x="390" y="-120" type="line"/>
      <point x="390" y="39" type="line"/>
      <point x="390" y="47" type="line"/>
      <point x="390" y="672" type="line"/>
      <point x="390" y="680" type="line"/>
      <point x="390" y="790" type="line"/>
    </contour>
  </outline>
</glyph>
<glyph name="uni20B8" format="2">
  <advance width="664"/>
  <unicode hex="20B8"/>
  <outline>
    <contour>
      <point x="283" y="85" type="line" smooth="yes"/>
      <point x="283" y="56"/>
      <point x="240" y="49"/>
      <point x="183" y="49" type="curve" smooth="yes"/>
      <point x="164" y="49" type="line"/>
      <point x="164" y="0" type="line"/>
      <point x="501" y="0" type="line"/>
      <point x="501" y="49" type="line"/>
      <point x="482" y="49" type="line" smooth="yes"/>
      <point x="424" y="49"/>
      <point x="382" y="56"/>
      <point x="382" y="85" type="curve" smooth="yes"/>
      <point x="382" y="506" type="line"/>
      <point x="423" y="506" type="line" smooth="yes"/>
      <point x="515.0" y="506"/>
      <point x="555.5533448471393" y="498.7859653554841"/>
      <point x="560" y="462" type="curve" smooth="yes"/>
      <point x="571" y="371" type="line"/>
      <point x="631" y="371" type="line"/>
      <point x="631" y="562" type="line"/>
      <point x="33" y="562" type="line"/>
      <point x="33" y="371" type="line"/>
      <point x="93" y="371" type="line"/>
      <point x="104" y="462" type="line" smooth="yes"/>
      <point x="108.44665515286071" y="498.7859653554841"/>
      <point x="149.0" y="506"/>
      <point x="241" y="506" type="curve" smooth="yes"/>
      <point x="283" y="506" type="line"/>
    </contour>
    <contour>
      <point x="33" y="710" type="line"/>
      <point x="33" y="656" type="line"/>
      <point x="631" y="656" type="line"/>
      <point x="631" y="710" type="line"/>
    </contour>
  </outline>
</glyph>
<glyph name="emptyset" format="2">
  <advance width="760"/>
  <unicode hex="2205"/>
  <outline>
    <contour>
      <point x="79" y="270" type="curve" smooth="yes"/>
      <point x="79" y="110"/>
      <point x="214" y="-10"/>
      <point x="380" y="-10" type="curve" smooth="yes"/>
      <point x="546" y="-10"/>
      <point x="681" y="110"/>
      <point x="681" y="270" type="curve" smooth="yes"/>
      <point x="681" y="430"/>
      <point x="546" y="550"/>
      <point x="380" y="550" type="curve" smooth="yes"/>
      <point x="214" y="550"/>
      <point x="79" y="430"/>
    </contour>
    <contour>
      <point x="670" y="586" type="line"/>
      <point x="48" y="-9" type="line"/>
      <point x="90" y="-46" type="line"/>
      <point x="712" y="549" type="line"/>
    </contour>
    <contour>
      <point x="380" y="47" type="curve" smooth="yes"/>
      <point x="247" y="47"/>
      <point x="145" y="139"/>
      <point x="145" y="270" type="curve" smooth="yes"/>
      <point x="145" y="400"/>
      <point x="251" y="494"/>
      <point x="380" y="494" type="curve" smooth="yes"/>
      <point x="514" y="494"/>
      <point x="615" y="402"/>
      <point x="615" y="270" type="curve" smooth="yes"/>
      <point x="615" y="140"/>
      <point x="510" y="47"/>
    </contour>
  </outline>
</glyph>
<glyph name="approxequal" format="2">
  <advance width="664"/>
  <unicode hex="2248"/>
  <outline>
    <contour>
      <point x="419" y="316.0" type="curve" smooth="yes"/>
      <point x="504.0" y="316.0"/>
      <point x="550" y="377"/>
      <point x="574" y="452" type="curve"/>
      <point x="512" y="474" type="line"/>
      <point x="494" y="437"/>
      <point x="481" y="394"/>
      <point x="428" y="394" type="curve" smooth="yes"/>
      <point x="365" y="394.0"/>
      <point x="321" y="465.0"/>
      <point x="238" y="465" type="curve" smooth="yes"/>
      <point x="151" y="465"/>
      <point x="110" y="408"/>
      <point x="90" y="327" type="curve"/>
      <point x="154" y="308" type="line"/>
      <point x="164" y="347"/>
      <point x="179" y="388.0"/>
      <point x="229" y="388" type="curve" smooth="yes"/>
      <point x="284" y="388.0"/>
      <point x="336" y="316.0"/>
    </contour>
    <contour>
      <point x="419" y="107.0" type="curve" smooth="yes"/>
      <point x="504.0" y="107.0"/>
      <point x="550" y="168"/>
      <point x="574" y="243" type="curve"/>
      <point x="512" y="265" type="line"/>
      <point x="494" y="228"/>
      <point x="481" y="185"/>
      <point x="428" y="185" type="curve" smooth="yes"/>
      <point x="365" y="185.0"/>
      <point x="321" y="256.0"/>
      <point x="238" y="256" type="curve" smooth="yes"/>
      <point x="151" y="256"/>
      <point x="110" y="199"/>
      <point x="90" y="118" type="curve"/>
      <point x="154" y="99" type="line"/>
      <point x="164" y="138"/>
      <point x="179" y="179.0"/>
      <point x="229" y="179" type="curve" smooth="yes"/>
      <point x="284" y="179.0"/>
      <point x="336" y="107.0"/>
    </contour>
  </outline>
</glyph>
<glyph name="uni25B4" format="2">
  <advance width="754"/>
  <unicode hex="25B4"/>
  <outline>
    <contour>
      <point x="110" y="71" type="line"/>
      <point x="377" y="506" type="line"/>
      <point x="644" y="71" type="line"/>
    </contour>
  </outline>
</glyph>
<glyph name="baht" format="2">
  <advance width="664"/>
  <outline>
    <contour>
      <point x="340" y="700" type="curve"/>
      <point x="6" y="700" type="line"/>
      <point x="6" y="652" type="line"/>
      <point x="19" y="652" type="line" smooth="yes"/>
      <point x="60" y="652"/>
      <point x="91" y="645"/>
      <point x="91" y="616" type="curve" smooth="yes"/>
      <point x="91" y="94" type="line" smooth="yes"/>
      <point x="91" y="65"/>
      <point x="60" y="58"/>
      <point x="19" y="58" type="curve" smooth="yes"/>
      <point x="6" y="58" type="line"/>
      <point x="6" y="10" type="line"/>
      <point x="349" y="10" type="line" smooth="yes"/>
      <point x="537.3505154639175" y="10"/>
      <point x="639.0" y="86.0"/>
      <point x="639" y="210" type="curve" smooth="yes"/>
      <point x="639.0" y="318.0"/>
      <point x="535.3432509350432" y="385.00330024655756"/>
      <point x="337" y="386" type="curve"/>
      <point x="326" y="364" type="line"/>
      <point x="508" y="364.0"/>
      <point x="603.0" y="430.0"/>
      <point x="603" y="531" type="curve" smooth="yes"/>
      <point x="603.0" y="636.0"/>
      <point x="512.6867924528302" y="700.0"/>
    </contour>
    <contour>
      <point x="361" y="400" type="curve"/>
      <point x="183" y="400" type="line"/>
      <point x="183" y="643" type="line"/>
      <point x="345" y="643" type="line"/>
      <point x="462.8443113772455" y="643.0"/>
      <point x="509.0" y="604.0169491525423"/>
      <point x="509" y="528" type="curve" smooth="yes"/>
      <point x="509.0" y="459.392"/>
      <point x="473.241610738255" y="400.0"/>
    </contour>
    <contour>
      <point x="369" y="344" type="line"/>
      <point x="495.2701149425287" y="344.0"/>
      <point x="542.0" y="285.1145038167939"/>
      <point x="542" y="211" type="curve" smooth="yes"/>
      <point x="542.0" y="117.29251700680271"/>
      <point x="486.2931937172775" y="66"/>
      <point x="352" y="66" type="curve" smooth="yes"/>
      <point x="183" y="66" type="line"/>
      <point x="183" y="344" type="line"/>
    </contour>
    <contour>
      <point x="300" y="790" type="line"/>
      <point x="300" y="676" type="line"/>
      <point x="304" y="660" type="line"/>
      <point x="304" y="46" type="line"/>
      <point x="300" y="36" type="line"/>
      <point x="300" y="-110" type="line"/>
      <point x="365" y="-110" type="line"/>
      <point x="365" y="38" type="line"/>
      <point x="362" y="50" type="line"/>
      <point x="362" y="662" type="line"/>
      <point x="365" y="673" type="line"/>
      <point x="365" y="790" type="line"/>
    </contour>
  </outline>
</glyph>
<glyph name="blackdiamond" format="2">
  <advance width="693"/>
  <outline>
    <contour>
      <point x="633" y="313" type="line"/>
      <point x="347" y="574" type="line"/>
      <point x="60" y="313" type="line"/>
      <point x="347" y="52" type="line"/>
    </contour>
  </outline>
</glyph>
<glyph name="braceleft.uc" format="2">
  <advance width="385"/>
  <outline>
    <contour>
      <point x="271" y="277" type="curve" smooth="yes"/>
      <point x="271" y="314"/>
      <point x="249" y="334"/>
      <point x="126" y="347" type="curve"/>
      <point x="126" y="352" type="line"/>
      <point x="249" y="365"/>
      <point x="271" y="385"/>
      <point x="271" y="422" type="curve" smooth="yes"/>
      <point x="271" y="465"/>
      <point x="177" y="565"/>
      <point x="177" y="627" type="curve" smooth="yes"/>
      <point x="177" y="684"/>
      <point x="230" y="711"/>
      <point x="360" y="709" type="curve"/>
      <point x="343" y="759" type="line"/>
      <point x="196" y="766"/>
      <point x="80" y="734"/>
      <point x="80" y="633" type="curve" smooth="yes"/>
      <point x="80" y="560"/>
      <point x="175" y="460"/>
      <point x="214" y="399" type="curve"/>
      <point x="226" y="419" type="line"/>
      <point x="55" y="371" type="line"/>
      <point x="55" y="328" type="line"/>
      <point x="226" y="280" type="line"/>
      <point x="214" y="300" type="line"/>
      <point x="175" y="239"/>
      <point x="80" y="139"/>
      <point x="80" y="67" type="curve" smooth="yes"/>
      <point x="80" y="-35"/>
      <point x="196" y="-67"/>
      <point x="343" y="-60" type="curve"/>
      <point x="360" y="-10" type="line"/>
      <point x="230" y="-12"/>
      <point x="177" y="15"/>
      <point x="177" y="72" type="curve" smooth="yes"/>
      <point x="177" y="134"/>
      <point x="271" y="234"/>
    </contour>
  </outline>
</glyph>
<glyph name="breve_hook" format="2">
  <advance width="599"/>
  <anchor x="301" y="525" name="_top"/>
  <outline>
    <contour>
      <point x="190" y="830" type="line"/>
      <point x="195" y="869"/>
      <point x="233" y="902"/>
      <point x="306" y="902" type="curve" smooth="yes"/>
      <point x="380" y="902"/>
      <point x="421" y="876"/>
      <point x="421" y="832" type="curve" smooth="yes"/>
      <point x="421" y="780"/>
      <point x="361" y="761"/>
      <point x="294" y="756" type="curve"/>
      <point x="325" y="780" type="line"/>
      <point x="325" y="730" type="line"/>
      <point x="270" y="730" type="line"/>
      <point x="270" y="788" type="line"/>
      <point x="325" y="791"/>
      <point x="348" y="804"/>
      <point x="348" y="830" type="curve" smooth="yes"/>
      <point x="348" y="849"/>
      <point x="334" y="860"/>
      <point x="305" y="860" type="curve" smooth="yes"/>
      <point x="274" y="860"/>
      <point x="260" y="848"/>
      <point x="256" y="830" type="curve"/>
    </contour>
    <contour>
      <point x="301" y="578" type="curve" smooth="yes"/>
      <point x="212" y="578"/>
      <point x="147" y="627"/>
      <point x="141" y="735" type="curve"/>
      <point x="204" y="735" type="line"/>
      <point x="213" y="669"/>
      <point x="248" y="650"/>
      <point x="304" y="650" type="curve" smooth="yes"/>
      <point x="359" y="650"/>
      <point x="390" y="669"/>
      <point x="399" y="735" type="curve"/>
      <point x="459" y="735" type="line"/>
      <point x="453" y="627"/>
      <point x="389" y="578"/>
    </contour>
  </outline>
</glyph>
<glyph name="breve_tilde" format="2">
  <advance width="598"/>
  <anchor x="300" y="524" name="_top"/>
  <outline>
    <contour>
      <point x="363" y="764" type="curve" smooth="yes"/>
      <point x="424" y="764"/>
      <point x="464.0120059975584" y="808.0426212913324"/>
      <point x="484" y="879" type="curve"/>
      <point x="433" y="897" type="line"/>
      <point x="419.0532038075985" y="859.1444103349102"/>
      <point x="404.93548387096774" y="835.0"/>
      <point x="373" y="835" type="curve" smooth="yes"/>
      <point x="330.09999999999997" y="835.0"/>
      <point x="292" y="894.0"/>
      <point x="230" y="894" type="curve" smooth="yes"/>
      <point x="165" y="894"/>
      <point x="130.99292852546552" y="852.9688023182301"/>
      <point x="114" y="778" type="curve"/>
      <point x="166" y="761" type="line"/>
      <point x="175.98095422209764" y="801.9219123106003"/>
      <point x="189.17241379310346" y="824.0"/>
      <point x="222" y="824" type="curve" smooth="yes"/>
      <point x="259.804347826087" y="824.0"/>
      <point x="296" y="764.0"/>
    </contour>
    <contour>
      <point x="300" y="579" type="curve" smooth="yes"/>
      <point x="211" y="579"/>
      <point x="147" y="627"/>
      <point x="141" y="720" type="curve"/>
      <point x="206" y="720" type="line"/>
      <point x="215" y="668"/>
      <point x="248" y="650"/>
      <point x="303" y="650" type="curve" smooth="yes"/>
      <point x="358" y="650"/>
      <point x="391" y="668"/>
      <point x="400" y="720" type="curve"/>
      <point x="459" y="720" type="line"/>
      <point x="453" y="627"/>
      <point x="389" y="579"/>
    </contour>
  </outline>
</glyph>
<glyph name="breve_tilde.uc" format="2">
  <advance width="588"/>
  <anchor x="292" y="694" name="_top"/>
  <outline>
    <contour>
      <point x="292" y="759" type="curve" smooth="yes"/>
      <point x="199.83333333333331" y="759.0"/>
      <point x="142.99433859673286" y="800.0503235845966"/>
      <point x="134" y="880" type="curve"/>
      <point x="202" y="880" type="line"/>
      <point x="211.95877253284476" y="839.1690326153366"/>
      <point x="239.88235294117646" y="828.0"/>
      <point x="294" y="828" type="curve" smooth="yes"/>
      <point x="350.8235294117647" y="828.0"/>
      <point x="377.0386568721095" y="839.176103528499"/>
      <point x="386" y="880" type="curve"/>
      <point x="449" y="880" type="line"/>
      <point x="440.0065361996553" y="800.0580995524913"/>
      <point x="384.1317365269461" y="759.0"/>
    </contour>
    <contour>
      <point x="357" y="924" type="curve" smooth="yes"/>
      <point x="411" y="924"/>
      <point x="448" y="960"/>
      <point x="469" y="1021" type="curve"/>
      <point x="415" y="1041" type="line"/>
      <point x="401.9768469931398" y="1011.9483509846966"/>
      <point x="388.0" y="989.0"/>
      <point x="364" y="989" type="curve" smooth="yes"/>
      <point x="320.0" y="989.0"/>
      <point x="282.8235294117647" y="1036.0"/>
      <point x="226" y="1036" type="curve" smooth="yes"/>
      <point x="171" y="1036"/>
      <point x="137" y="1001"/>
      <point x="120" y="938" type="curve"/>
      <point x="174" y="919" type="line"/>
      <point x="182.10073169417583" y="951.4029267767033"/>
      <point x="196.04166666666666" y="971.0"/>
      <point x="220" y="971" type="curve" smooth="yes"/>
      <point x="259.5777777777778" y="971.0"/>
      <point x="296.1111111111111" y="924.0"/>
    </contour>
  </outline>
</glyph>
<glyph name="circumflex_tilde.uc" format="2">
  <advance width="588"/>
  <anchor x="288" y="694" name="_top"/>
  <outline>
    <contour>
      <point x="346" y="865" type="line"/>
      <point x="472" y="764" type="line"/>
      <point x="472" y="750" type="line"/>
      <point x="419" y="750" type="line"/>
      <point x="280" y="813" type="line"/>
      <point x="298" y="813" type="line"/>
      <point x="160" y="750" type="line"/>
      <point x="116" y="750" type="line"/>
      <point x="116" y="764" type="line"/>
      <point x="242" y="865" type="line"/>
    </contour>
    <contour>
      <point x="362" y="898" type="curve" smooth="yes"/>
      <point x="415" y="898"/>
      <point x="445" y="930"/>
      <point x="468" y="984" type="curve"/>
      <point x="417" y="1005" type="line"/>
      <point x="406" y="979"/>
      <point x="393" y="959.0"/>
      <point x="368" y="959" type="curve" smooth="yes"/>
      <point x="324" y="959.0"/>
      <point x="287" y="1001.0"/>
      <point x="228" y="1001" type="curve" smooth="yes"/>
      <point x="178" y="1001"/>
      <point x="146" y="969"/>
      <point x="130" y="913" type="curve"/>
      <point x="180" y="894" type="line"/>
      <point x="190" y="924"/>
      <point x="201" y="941.0"/>
      <point x="225" y="941" type="curve" smooth="yes"/>
      <point x="260" y="941.0"/>
      <point x="295" y="898.0"/>
    </contour>
  </outline>
</glyph>
<glyph name="colonsign" format="2">
  <advance width="664"/>
  <outline>
    <contour>
      <point x="378" y="701" type="curve" smooth="yes"/>
      <point x="165.4022346368715" y="701.0"/>
      <point x="24.0" y="560.0"/>
      <point x="24" y="355" type="curve" smooth="yes"/>
      <point x="24.0" y="152.0"/>
      <point x="156" y="9.0"/>
      <point x="356" y="9" type="curve" smooth="yes"/>
      <point x="516" y="9"/>
      <point x="613" y="100"/>
      <point x="648" y="238" type="curve"/>
      <point x="586" y="257" type="line"/>
      <point x="560.0" y="141.0"/>
      <point x="488.0" y="67.0"/>
      <point x="362" y="67" type="curve" smooth="yes"/>
      <point x="209" y="67.0"/>
      <point x="121.0" y="178.0"/>
      <point x="121" y="355" type="curve" smooth="yes"/>
      <point x="121.0" y="531.0"/>
      <point x="216.51340996168582" y="644.0"/>
      <point x="378" y="644" type="curve" smooth="yes"/>
      <point x="482.54794520547944" y="644.0"/>
      <point x="568.4457150601054" y="602.0188349176333"/>
      <point x="594" y="567" type="curve"/>
      <point x="603" y="587"/>
      <point x="574" y="628"/>
      <point x="543" y="627" type="curve"/>
      <point x="543" y="502" type="line"/>
      <point x="639" y="502" type="line"/>
      <point x="639" y="628" type="line"/>
      <point x="607.2253220468798" y="652.8239671508752"/>
      <point x="519.375" y="701.0"/>
    </contour>
    <contour>
      <point x="289" y="790" type="line"/>
      <point x="144" y="-120" type="line"/>
      <point x="204" y="-120" type="line"/>
      <point x="349" y="790" type="line"/>
    </contour>
    <contour>
      <point x="452" y="790" type="line"/>
      <point x="308" y="-120" type="line"/>
      <point x="368" y="-120" type="line"/>
      <point x="512" y="790" type="line"/>
    </contour>
  </outline>
</glyph>
<glyph name="five.oldtab" format="2">
  <advance width="664"/>
  <outline>
    <contour>
      <point x="330" y="-151" type="curve" smooth="yes"/>
      <point x="183" y="-151"/>
      <point x="97" y="-85"/>
      <point x="51" y="-9" type="curve"/>
      <point x="107" y="36" type="line"/>
      <point x="143" y="-20"/>
      <point x="205" y="-89"/>
      <point x="330" y="-89" type="curve" smooth="yes"/>
      <point x="445" y="-89"/>
      <point x="520" y="-22"/>
      <point x="520" y="86" type="curve" smooth="yes"/>
      <point x="520" y="186"/>
      <point x="444" y="243"/>
      <point x="350" y="243" type="curve" smooth="yes"/>
      <point x="277" y="243"/>
      <point x="219" y="220"/>
      <point x="175" y="177" type="curve"/>
      <point x="116" y="177" type="line"/>
      <point x="116" y="548" type="line"/>
      <point x="571" y="548" type="line"/>
      <point x="545" y="467" type="line"/>
      <point x="156" y="467" type="line"/>
      <point x="185" y="528" type="line"/>
      <point x="185" y="215" type="line"/>
      <point x="181" y="205"/>
      <point x="160" y="197"/>
      <point x="158" y="218" type="curve"/>
      <point x="200" y="272"/>
      <point x="278" y="305"/>
      <point x="366" y="305" type="curve" smooth="yes"/>
      <point x="524" y="305"/>
      <point x="621" y="203"/>
      <point x="621" y="86" type="curve" smooth="yes"/>
      <point x="621" y="-54"/>
      <point x="505" y="-151"/>
    </contour>
  </outline>
</glyph>
<glyph name="florin" format="2">
  <advance width="664"/>
  <outline>
    <contour>
      <point x="174" y="508" type="line"/>
      <point x="167" y="452" type="line"/>
      <point x="561" y="452" type="line"/>
      <point x="568" y="508" type="line"/>
    </contour>
    <contour>
      <point x="301" y="27" type="curve" smooth="yes"/>
      <point x="391" y="581" type="line" smooth="yes"/>
      <point x="405" y="668"/>
      <point x="453" y="698.0"/>
      <point x="529" y="698" type="curve" smooth="yes"/>
      <point x="567" y="698.0"/>
      <point x="601" y="691"/>
      <point x="639" y="679" type="curve"/>
      <point x="644" y="747" type="line"/>
      <point x="614" y="759"/>
      <point x="568" y="766.0"/>
      <point x="528" y="766" type="curve" smooth="yes"/>
      <point x="399" y="766.0"/>
      <point x="319" y="708"/>
      <point x="299" y="586" type="curve" smooth="yes"/>
      <point x="211" y="43" type="line" smooth="yes"/>
      <point x="182" y="-135"/>
      <point x="121" y="-168"/>
      <point x="54" y="-168" type="curve" smooth="yes"/>
      <point x="21" y="-168"/>
      <point x="-5" y="-161"/>
      <point x="-29" y="-154" type="curve"/>
      <point x="-35" y="-222" type="line"/>
      <point x="-17" y="-229"/>
      <point x="14" y="-236"/>
      <point x="54" y="-236" type="curve" smooth="yes"/>
      <point x="181" y="-236"/>
      <point x="271" y="-158"/>
    </contour>
  </outline>
</glyph>
<glyph name="guarani.proportional" format="2">
  <advance width="903"/>
  <outline>
    <contour>
      <point x="589" y="358" type="line"/>
      <point x="589" y="310" type="line"/>
      <point x="597" y="310" type="line" smooth="yes"/>
      <point x="649" y="310"/>
      <point x="687.0" y="302.0"/>
      <point x="687" y="274" type="curve"/>
      <point x="782" y="274" type="line"/>
      <point x="782.0" y="302.0"/>
      <point x="815" y="310"/>
      <point x="858" y="310" type="curve" smooth="yes"/>
      <point x="863" y="310" type="line"/>
      <point x="863" y="358" type="line"/>
    </contour>
    <contour>
      <point x="416" y="790" type="line"/>
      <point x="416" y="668" type="line"/>
      <point x="416" y="653" type="line"/>
      <point x="416" y="49" type="line"/>
      <point x="416" y="38" type="line"/>
      <point x="416" y="-120" type="line"/>
      <point x="482" y="-120" type="line"/>
      <point x="482" y="33" type="line"/>
      <point x="482" y="43" type="line"/>
      <point x="482" y="668" type="line"/>
      <point x="482" y="674" type="line"/>
      <point x="482" y="790" type="line"/>
    </contour>
    <contour>
      <point x="474" y="9" type="curve" smooth="yes"/>
      <point x="601" y="9"/>
      <point x="731" y="67"/>
      <point x="782" y="118" type="curve"/>
      <point x="782" y="320" type="line"/>
      <point x="687" y="329" type="line"/>
      <point x="687" y="132" type="line"/>
      <point x="659.4833753048201" y="110.59818079263785"/>
      <point x="580.0" y="69.0"/>
      <point x="475" y="69" type="curve" smooth="yes"/>
      <point x="278" y="69"/>
      <point x="168" y="177"/>
      <point x="168" y="355" type="curve" smooth="yes"/>
      <point x="168" y="527"/>
      <point x="278" y="641"/>
      <point x="477" y="641" type="curve" smooth="yes"/>
      <point x="590.0" y="641.0"/>
      <point x="680.6013815144656" y="611.1056377477178"/>
      <point x="719" y="554" type="curve"/>
      <point x="728" y="585"/>
      <point x="699" y="619"/>
      <point x="665" y="622" type="curve"/>
      <point x="665" y="513" type="line"/>
      <point x="770" y="513" type="line"/>
      <point x="770" y="617" type="line"/>
      <point x="715.5092883766997" y="661.583309509973"/>
      <point x="612.0" y="701.0"/>
      <point x="477" y="701" type="curve" smooth="yes"/>
      <point x="227" y="701"/>
      <point x="63" y="558"/>
      <point x="63" y="355" type="curve" smooth="yes"/>
      <point x="63" y="148"/>
      <point x="224" y="9"/>
    </contour>
  </outline>
</glyph>
<glyph name="liraTurkish" format="2">
  <advance width="664"/>
  <outline>
    <contour>
      <point x="42" y="412" type="line"/>
      <point x="42" y="358" type="line"/>
      <point x="499" y="533" type="line"/>
      <point x="499" y="587" type="line"/>
    </contour>
    <contour>
      <point x="42" y="248" type="line"/>
      <point x="42" y="194" type="line"/>
      <point x="499" y="369" type="line"/>
      <point x="499" y="423" type="line"/>
    </contour>
    <contour>
      <point x="326" y="59" type="curve" smooth="yes"/>
      <point x="252" y="59" type="line"/>
      <point x="252" y="625" type="line" smooth="yes"/>
      <point x="252" y="654.0"/>
      <point x="289.5777777777778" y="661"/>
      <point x="341" y="661" type="curve" smooth="yes"/>
      <point x="354" y="661" type="line"/>
      <point x="354" y="710" type="line"/>
      <point x="55" y="710" type="line"/>
      <point x="55" y="661" type="line"/>
      <point x="66" y="661" type="line" smooth="yes"/>
      <point x="116.45999999999998" y="661"/>
      <point x="153" y="654.0"/>
      <point x="153" y="625" type="curve" smooth="yes"/>
      <point x="153" y="85" type="line" smooth="yes"/>
      <point x="153" y="56.0"/>
      <point x="116.45999999999998" y="49"/>
      <point x="66" y="49" type="curve" smooth="yes"/>
      <point x="55" y="49" type="line"/>
      <point x="55" y="0" type="line"/>
      <point x="311" y="0" type="line" smooth="yes"/>
      <point x="513.0" y="0.0"/>
      <point x="617.0012462924888" y="96.02028057777105"/>
      <point x="628" y="275" type="curve"/>
      <point x="548" y="295" type="line"/>
      <point x="544.0667439210462" y="142.58632694054006"/>
      <point x="472.0" y="59.0"/>
    </contour>
  </outline>
</glyph>
<glyph name="nine.lintab" format="2">
  <advance width="664"/>
  <outline>
    <contour>
      <point x="109" y="47" type="line"/>
      <point x="365" y="69"/>
      <point x="507" y="179"/>
      <point x="507" y="401" type="curve" smooth="yes"/>
      <point x="507" y="591"/>
      <point x="436" y="658"/>
      <point x="320" y="658" type="curve" smooth="yes"/>
      <point x="216" y="658"/>
      <point x="150" y="599"/>
      <point x="150" y="497" type="curve" smooth="yes"/>
      <point x="150" y="408"/>
      <point x="203" y="340"/>
      <point x="310" y="340" type="curve" smooth="yes"/>
      <point x="408" y="340"/>
      <point x="481" y="398"/>
      <point x="524" y="485" type="curve"/>
      <point x="537" y="432" type="line"/>
      <point x="505" y="352"/>
      <point x="413" y="279"/>
      <point x="293" y="279" type="curve" smooth="yes"/>
      <point x="151" y="279"/>
      <point x="47" y="366"/>
      <point x="47" y="496" type="curve" smooth="yes"/>
      <point x="47" y="630"/>
      <point x="163" y="720"/>
      <point x="320" y="720" type="curve" smooth="yes"/>
      <point x="490" y="720"/>
      <point x="608" y="620"/>
      <point x="608" y="401" type="curve" smooth="yes"/>
      <point x="608" y="159"/>
      <point x="423" y="2"/>
      <point x="119" y="-15" type="curve"/>
    </contour>
  </outline>
</glyph>
<glyph name="nine.oldtab" format="2">
  <advance width="664"/>
  <outline>
    <contour>
      <point x="105" y="-91" type="line"/>
      <point x="363" y="-76"/>
      <point x="513" y="44"/>
      <point x="513" y="247" type="curve" smooth="yes"/>
      <point x="513" y="425"/>
      <point x="434" y="496"/>
      <point x="318" y="496" type="curve" smooth="yes"/>
      <point x="208" y="496"/>
      <point x="142" y="436"/>
      <point x="142" y="336" type="curve" smooth="yes"/>
      <point x="142" y="246"/>
      <point x="198" y="183"/>
      <point x="304" y="183" type="curve" smooth="yes"/>
      <point x="412" y="183"/>
      <point x="487" y="249"/>
      <point x="529" y="333" type="curve"/>
      <point x="542" y="279" type="line"/>
      <point x="513" y="203"/>
      <point x="418" y="122"/>
      <point x="291" y="122" type="curve" smooth="yes"/>
      <point x="146" y="122"/>
      <point x="41" y="202"/>
      <point x="41" y="334" type="curve" smooth="yes"/>
      <point x="41" y="466"/>
      <point x="157" y="558"/>
      <point x="318" y="558" type="curve" smooth="yes"/>
      <point x="487" y="558"/>
      <point x="612" y="458"/>
      <point x="612" y="249" type="curve" smooth="yes"/>
      <point x="612" y="26"/>
      <point x="425" y="-137"/>
      <point x="115" y="-153" type="curve"/>
    </contour>
  </outline>
</glyph>
<glyph name="one.lintab" format="2">
  <advance width="664"/>
  <outline>
    <contour>
      <point x="404" y="85" type="curve" smooth="yes"/>
      <point x="404" y="710" type="line"/>
      <point x="337" y="710" type="line"/>
      <point x="295" y="659"/>
      <point x="214" y="636"/>
      <point x="105" y="634" type="curve"/>
      <point x="105" y="563" type="line"/>
      <point x="206" y="562"/>
      <point x="292" y="597"/>
      <point x="322" y="650" type="curve"/>
      <point x="329" y="666"/>
      <point x="324" y="662"/>
      <point x="305" y="637" type="curve"/>
      <point x="305" y="85" type="line" smooth="yes"/>
      <point x="305" y="56"/>
      <point x="260" y="49"/>
      <point x="187" y="49" type="curve" smooth="yes"/>
      <point x="124" y="49" type="line"/>
      <point x="124" y="0" type="line"/>
      <point x="584" y="0" type="line"/>
      <point x="584" y="49" type="line"/>
      <point x="534" y="49" type="line" smooth="yes"/>
      <point x="454" y="49"/>
      <point x="404" y="56"/>
    </contour>
  </outline>
</glyph>
<glyph name="parenleft.uc" format="2">
  <advance width="395"/>
  <outline>
    <contour>
      <point x="151" y="364" type="curve" smooth="yes"/>
      <point x="151" y="158"/>
      <point x="265" y="41"/>
      <point x="365" y="-37" type="curve"/>
      <point x="365" y="-40" type="line"/>
      <point x="291" y="-40" type="line"/>
      <point x="164" y="34"/>
      <point x="55" y="158"/>
      <point x="55" y="364" type="curve" smooth="yes"/>
      <point x="55" y="548"/>
      <point x="164" y="673"/>
      <point x="291" y="750" type="curve"/>
      <point x="365" y="750" type="line"/>
      <point x="365" y="746" type="line"/>
      <point x="266" y="666"/>
      <point x="151" y="549"/>
    </contour>
  </outline>
</glyph>
<glyph name="ringhalfleft" format="2">
  <advance width="588"/>
  <anchor x="294" y="566" name="_top"/>
  <outline>
    <contour>
      <point x="294" y="609" type="line"/>
      <point x="256" y="609"/>
      <point x="228" y="629"/>
      <point x="228" y="670" type="curve" smooth="yes"/>
      <point x="228" y="710"/>
      <point x="256" y="731"/>
      <point x="294" y="731" type="curve"/>
      <point x="294" y="768" type="line"/>
      <point x="224" y="768"/>
      <point x="168" y="732"/>
      <point x="168" y="670" type="curve" smooth="yes"/>
      <point x="168" y="607"/>
      <point x="224" y="571"/>
      <point x="294" y="571" type="curve"/>
    </contour>
  </outline>
</glyph>
<glyph name="sterling.alt" format="2">
  <advance width="664"/>
  <outline>
    <contour>
      <point x="42" y="371" type="line"/>
      <point x="42" y="316" type="line"/>
      <point x="476" y="316" type="line"/>
      <point x="476" y="371" type="line"/>
    </contour>
    <contour>
      <point x="39" y="0" type="line"/>
      <point x="612" y="0" type="line"/>
      <point x="612" y="203" type="line"/>
      <point x="550" y="203" type="line"/>
      <point x="541" y="116" type="line" smooth="yes"/>
      <point x="537.5787906803665" y="82.92830991020992"/>
      <point x="495.3835616438356" y="76.0"/>
      <point x="393" y="76" type="curve"/>
      <point x="72" y="76" type="line"/>
      <point x="126" y="63" type="line"/>
      <point x="221" y="107"/>
      <point x="279" y="185"/>
      <point x="279" y="258" type="curve" smooth="yes"/>
      <point x="279.0" y="360"/>
      <point x="199.0" y="422"/>
      <point x="199" y="527" type="curve" smooth="yes"/>
      <point x="199" y="608"/>
      <point x="264" y="658.0"/>
      <point x="379" y="658" type="curve" smooth="yes"/>
      <point x="461" y="658"/>
      <point x="509" y="633"/>
      <point x="543" y="604" type="curve"/>
      <point x="542" y="624"/>
      <point x="529" y="648"/>
      <point x="501" y="650" type="curve"/>
      <point x="501" y="544" type="line"/>
      <point x="597" y="544" type="line"/>
      <point x="597" y="663" type="line"/>
      <point x="564" y="689"/>
      <point x="492" y="720"/>
      <point x="378" y="720" type="curve" smooth="yes"/>
      <point x="199.0" y="720.0"/>
      <point x="99.0" y="640"/>
      <point x="99" y="526" type="curve" smooth="yes"/>
      <point x="99" y="411"/>
      <point x="202.0" y="344"/>
      <point x="202" y="241" type="curve" smooth="yes"/>
      <point x="202" y="168"/>
      <point x="118" y="110"/>
      <point x="39" y="76" type="curve"/>
    </contour>
  </outline>
</glyph>
<glyph name="three.oldtab" format="2">
  <advance width="664"/>
  <outline>
    <contour>
      <point x="332" y="-88" type="curve" smooth="yes"/>
      <point x="440" y="-88"/>
      <point x="512" y="-38"/>
      <point x="512" y="53" type="curve" smooth="yes"/>
      <point x="512" y="141"/>
      <point x="452" y="194"/>
      <point x="298" y="194" type="curve" smooth="yes"/>
      <point x="218" y="194" type="line"/>
      <point x="218" y="253" type="line"/>
      <point x="289" y="253" type="line" smooth="yes"/>
      <point x="406" y="253"/>
      <point x="482" y="297"/>
      <point x="482" y="385" type="curve" smooth="yes"/>
      <point x="482" y="466"/>
      <point x="414" y="497"/>
      <point x="327" y="497" type="curve" smooth="yes"/>
      <point x="235" y="497"/>
      <point x="174" y="468"/>
      <point x="139" y="423" type="curve"/>
      <point x="143" y="460"/>
      <point x="160" y="483"/>
      <point x="185" y="487" type="curve"/>
      <point x="185" y="372" type="line"/>
      <point x="89" y="372" type="line"/>
      <point x="89" y="478" type="line"/>
      <point x="130" y="518"/>
      <point x="210" y="558"/>
      <point x="329" y="558" type="curve" smooth="yes"/>
      <point x="475" y="558"/>
      <point x="580" y="496"/>
      <point x="580" y="397" type="curve" smooth="yes"/>
      <point x="580" y="293"/>
      <point x="459" y="221"/>
      <point x="305" y="221" type="curve"/>
      <point x="326" y="233" type="line"/>
      <point x="541" y="233"/>
      <point x="613" y="156"/>
      <point x="613" y="52" type="curve" smooth="yes"/>
      <point x="613" y="-68"/>
      <point x="495" y="-150"/>
      <point x="332" y="-150" type="curve" smooth="yes"/>
      <point x="184" y="-150"/>
      <point x="83" y="-87"/>
      <point x="34" y="10" type="curve"/>
      <point x="94" y="53" type="line"/>
      <point x="134" y="-25"/>
      <point x="207" y="-88"/>
    </contour>
  </outline>
</glyph>
